<?xml version="1.0" encoding="UTF-8" standalone="no"?>
<svg
   xmlns:dc="http://purl.org/dc/elements/1.1/"
   xmlns:cc="http://creativecommons.org/ns#"
   xmlns:rdf="http://www.w3.org/1999/02/22-rdf-syntax-ns#"
   xmlns:svg="http://www.w3.org/2000/svg"
   xmlns="http://www.w3.org/2000/svg"
   xmlns:sodipodi="http://sodipodi.sourceforge.net/DTD/sodipodi-0.dtd"
   xmlns:inkscape="http://www.inkscape.org/namespaces/inkscape"
   width="42"
   height="42"
   viewBox="0 0 11.1125 11.1125"
   version="1.1"
   id="svg8"
   sodipodi:docname="logo.svg"
   inkscape:version="1.0.2 (e86c8708, 2021-01-15)"
   inkscape:export-filename="/Users/tobias/Developer/digitalstage/ds-client/images/icon.png"
   inkscape:export-xdpi="48"
   inkscape:export-ydpi="48">
  <sodipodi:namedview
     pagecolor="#ffffff"
     bordercolor="#666666"
     borderopacity="1"
     objecttolerance="10"
     gridtolerance="10"
     guidetolerance="10"
     inkscape:pageopacity="0"
     inkscape:pageshadow="2"
     inkscape:window-width="1148"
     inkscape:window-height="673"
     id="namedview959"
     showgrid="false"
     inkscape:zoom="11.528491"
     inkscape:cx="30.574724"
     inkscape:cy="23.974853"
     inkscape:window-x="0"
     inkscape:window-y="25"
     inkscape:window-maximized="0"
     inkscape:current-layer="g153"
     inkscape:pagecheckerboard="true"
     inkscape:document-rotation="0" />
  <defs
     id="defs2">
    <style
       id="style10">
            .a{fill:none;}.b{clip-path:url(#a);}.c{clip-path:url(#b);}.d{clip-path:url(#c);}.e{fill:#fff;}.f{clip-path:url(#e);}.g{clip-path:url(#g);}.h{fill:#fff;}.i{fill:#fff;}.j{clip-path:url(#k);}.k{clip-path:url(#m);}.l{fill:#fff;}.m{fill:#fff;}.n{clip-path:url(#q);}.o{clip-path:url(#s);}.p{fill:#fff;}.q{fill:#fff;}
        </style>
    <clipPath
       id="a">
      <path
         class="a"
         d="M 28.242,-0.262 H 277.337 V -96.419 H 28.242 Z"
         transform="translate(-28.242,96.419)"
         id="path12" />
    </clipPath>
    <clipPath
       id="b">
      <rect
         class="a"
         width="92360.367"
         height="92360.352"
         id="rect15"
         x="0"
         y="0" />
    </clipPath>
    <clipPath
       id="c">
      <path
         class="a"
         d="M 28.242,-96.419 H 277.337 V -0.262 H 28.242 Z"
         transform="translate(-28.242,96.419)"
         id="path18" />
    </clipPath>
    <clipPath
       id="e">
      <path
         class="a"
         d="m 29.654,-64.1 a 40.665,40.665 0 0 0 -1.45,10.7 25.333,25.333 0 0 0 0.163,3.53 50.1,50.1 0 0 1 58.066,32.284 40.4,40.4 0 0 0 11.412,-8.674 63.648,63.648 0 0 0 -58.445,-38.31 67.36,67.36 0 0 0 -9.741,0.465"
         transform="translate(-28.204,64.591)"
         id="path21" />
    </clipPath>
    <clipPath
       id="g">
      <path
         class="a"
         d="m 17.077,-16.889 24.649,-64.311 76.4,29.282 -24.649,64.311 z"
         transform="translate(-17.077,81.202)"
         id="path24" />
    </clipPath>
    <clipPath
       id="k">
      <path
         class="a"
         d="m 65.9,-96.419 v 16.09 a 40,40 0 0 0 -31.852,15.789 76.179,76.179 0 0 1 69.312,38.31 39.967,39.967 0 0 0 2.545,-14.092 v -56.1 z"
         transform="translate(-34.048,96.419)"
         id="path27" />
    </clipPath>
    <clipPath
       id="m">
      <path
         class="a"
         d="m 17.409,-28.226 32.67,-85.24 86.134,33.012 -32.669,85.241 z"
         transform="translate(-17.409,113.466)"
         id="path30" />
    </clipPath>
    <clipPath
       id="q">
      <path
         class="a"
         d="m 30.6,-45.014 a 40.306,40.306 0 0 0 12.013,15.487 10.484,10.484 0 0 1 8.487,1.833 10.381,10.381 0 0 1 3.5,4.652 40.49,40.49 0 0 0 12.7,2.052 38.071,38.071 0 0 0 5.884,-0.437 37.434,37.434 0 0 0 -35.084,-24.354 36.693,36.693 0 0 0 -7.526,0.767 z"
         transform="translate(-30.572,45.781)"
         id="path33" />
    </clipPath>
    <clipPath
       id="s">
      <path
         class="a"
         d="m 24.718,-20.029 13.74,-35.849 45.431,17.412 -13.74,35.849 z"
         transform="translate(-24.718,55.878)"
         id="path36" />
    </clipPath>
  </defs>
  <metadata
     id="metadata5">
    <rdf:RDF>
      <cc:Work
         rdf:about="">
        <dc:format>image/svg+xml</dc:format>
        <dc:type
           rdf:resource="http://purl.org/dc/dcmitype/StillImage" />
        <dc:title />
      </cc:Work>
    </rdf:RDF>
  </metadata>
  <g
     class="c"
     clip-path="url(#b)"
     id="g153"
     transform="matrix(0.26458332,0,0,0.26458333,-12181.424,-12085.912)"
     style="fill:#ffffff">
    <g
       id="g486"
       transform="matrix(1.8007226,0,0,1.8007474,-36866.106,-36578.182)"
       style="fill:#000000">
      <g
         class="f"
         transform="matrix(0.16638319,0,0,0.16638115,46045.481,45690.839)"
         clip-path="url(#e)"
         id="g111"
         style="fill:#000000">
        <g
           transform="translate(-46220.641,-46088.445)"
           id="g109"
           style="fill:#000000">
          <g
             class="c"
             clip-path="url(#b)"
             id="g107"
             style="fill:#000000">
            <g
               class="g"
               transform="translate(46204.957,46065.035)"
               clip-path="url(#g)"
               id="g105"
               style="fill:#000000">
              <g
                 transform="translate(-46204.957,-46065.035)"
                 id="g99"
                 style="fill:#000000">
                <g
                   class="c"
                   clip-path="url(#b)"
                   id="g97"
                   style="fill:#000000">
                  <g
                     transform="rotate(-69.03,56621.689,-10456.812)"
                     id="g95"
                     style="fill:#000000">
                    <path
                       class="h"
                       d="M 163.976,0 359.736,510.771 195.76,573.617 0,62.846 Z"
                       id="path93"
                       style="fill:#000000" />
                  </g>
                </g>
              </g>
              <g
                 transform="rotate(-69.03,25.48031,106.14247)"
                 id="g103"
                 style="fill:#000000">
                <path
                   class="i"
                   d="M 163.976,0 359.736,510.771 195.76,573.617 0,62.846 Z"
                   id="path101"
                   style="fill:#000000" />
              </g>
            </g>
          </g>
        </g>
      </g>
      <g
         class="j"
         transform="matrix(0.16638319,0,0,0.16638115,46046.852,45683.376)"
         clip-path="url(#k)"
         id="g131"
         style="fill:#000000">
        <g
           transform="translate(-46228.875,-46043.586)"
           id="g129"
           style="fill:#000000">
          <g
             class="c"
             clip-path="url(#b)"
             id="g127"
             style="fill:#000000">
            <g
               class="k"
               transform="translate(46205.426,46019.563)"
               clip-path="url(#m)"
               id="g125"
               style="fill:#000000">
              <g
                 transform="translate(-46205.426,-46019.563)"
                 id="g119"
                 style="fill:#000000">
                <g
                   class="c"
                   clip-path="url(#b)"
                   id="g117"
                   style="fill:#000000">
                  <g
                     transform="rotate(-69.03,56621.689,-10456.812)"
                     id="g115"
                     style="fill:#000000">
                    <path
                       class="l"
                       d="M 163.976,0 359.736,510.771 195.76,573.617 0,62.846 Z"
                       id="path113"
                       style="fill:#000000" />
                  </g>
                </g>
              </g>
              <g
                 transform="rotate(-69.03,58.308121,129.21826)"
                 id="g123"
                 style="fill:#000000">
                <path
                   class="m"
                   d="M 163.976,0 359.736,510.771 195.76,573.617 0,62.846 Z"
                   id="path121"
                   style="fill:#000000" />
              </g>
            </g>
          </g>
        </g>
      </g>
      <g
         class="n"
         transform="matrix(0.16638319,0,0,0.16638115,46046.036,45695.251)"
         clip-path="url(#q)"
         id="g151"
         style="fill:#000000">
        <g
           transform="translate(-46223.977,-46114.953)"
           id="g149"
           style="fill:#000000">
          <g
             class="c"
             clip-path="url(#b)"
             id="g147"
             style="fill:#000000">
            <g
               class="o"
               transform="translate(46215.727,46100.723)"
               clip-path="url(#s)"
               id="g145"
               style="fill:#000000">
              <g
                 transform="translate(-46215.727,-46100.723)"
                 id="g139"
                 style="fill:#000000">
                <g
                   class="c"
                   clip-path="url(#b)"
                   id="g137"
                   style="fill:#000000">
                  <g
                     transform="rotate(-69.03,56621.689,-10456.812)"
                     id="g135"
                     style="fill:#000000">
                    <path
                       class="p"
                       d="M 163.976,0 359.736,510.771 195.76,573.617 0,62.846 Z"
                       id="path133"
                       style="fill:#000000" />
                  </g>
                </g>
              </g>
              <g
                 transform="rotate(-69.03,-5.8537696,96.126851)"
                 id="g143"
                 style="fill:#000000">
                <path
                   class="q"
                   d="M 163.976,0 359.736,510.771 195.76,573.617 0,62.846 Z"
                   id="path141"
                   style="fill:#000000" />
              </g>
            </g>
          </g>
        </g>
      </g>
    </g>
  </g>
</svg>
